<svg width="39" height="47" viewBox="0 0 39 47" fill="none"
    xmlns="http://www.w3.org/2000/svg">
    <path d="M32.16 24.5334H26.96V12.3634C27.0126 11.3459 26.8575 10.3283 26.5043 9.37266C26.1512 8.41698 25.6072 7.54316 24.9056 6.80437C24.204 6.06559 23.3594 5.47729 22.4232 5.07528C21.487 4.67327 20.4788 4.46596 19.46 4.46596C18.4411 4.46596 17.433 4.67327 16.4968 5.07528C15.5606 5.47729 14.716 6.06559 14.0144 6.80437C13.3128 7.54316 12.7688 8.41698 12.4156 9.37266C12.0625 10.3283 11.9074 11.3459 11.96 12.3634V24.5334H6.75V12.3634C6.84285 9.05288 8.22318 5.90912 10.5976 3.60039C12.972 1.29165 16.1532 0 19.465 0C22.7768 0 25.958 1.29165 28.3324 3.60039C30.7068 5.90912 32.0871 9.05288 32.18 12.3634L32.16 24.5334Z" fill="#89B3E8"/>
    <path opacity="0.46" d="M32.16 24.5334H26.96V12.3634C27.0126 11.3459 26.8575 10.3283 26.5043 9.37266C26.1512 8.41698 25.6072 7.54316 24.9056 6.80437C24.204 6.06559 23.3594 5.47729 22.4232 5.07528C21.487 4.67327 20.4788 4.46596 19.46 4.46596C18.4411 4.46596 17.433 4.67327 16.4968 5.07528C15.5606 5.47729 14.716 6.06559 14.0144 6.80437C13.3128 7.54316 12.7688 8.41698 12.4156 9.37266C12.0625 10.3283 11.9074 11.3459 11.96 12.3634V24.5334H6.75V12.3634C6.84285 9.05288 8.22318 5.90912 10.5976 3.60039C12.972 1.29165 16.1532 0 19.465 0C22.7768 0 25.958 1.29165 28.3324 3.60039C30.7068 5.90912 32.0871 9.05288 32.18 12.3634L32.16 24.5334Z" fill="white"/>
    <path d="M38.9 15.2334H0V46.2434H38.9V15.2334Z" fill="#89B3E8"/>
    <path d="M22.98 26.5034C23.0074 25.9473 22.9216 25.3914 22.7277 24.8694C22.5338 24.3475 22.2359 23.8704 21.852 23.4671C21.4681 23.0638 21.0063 22.7427 20.4945 22.5233C19.9828 22.3039 19.4318 22.1907 18.875 22.1907C18.3182 22.1907 17.7672 22.3039 17.2555 22.5233C16.7437 22.7427 16.2819 23.0638 15.898 23.4671C15.5141 23.8704 15.2162 24.3475 15.0223 24.8694C14.8284 25.3914 14.7425 25.9473 14.77 26.5034C14.7669 27.0691 14.8839 27.6289 15.1132 28.1461C15.3424 28.6632 15.6788 29.1258 16.1 29.5034V38.2234H21.74V29.4434C22.1313 29.0601 22.4425 28.6027 22.6554 28.098C22.8683 27.5933 22.9786 27.0512 22.98 26.5034Z" fill="#24285B"/>
</svg>
